<mxfile host="app.diagrams.net" modified="2024-01-28T20:51:10.383Z" agent="Mozilla/5.0 (Windows NT 10.0; Win64; x64) AppleWebKit/537.36 (KHTML, like Gecko) Chrome/121.0.0.0 Safari/537.36 Edg/121.0.0.0" etag="6AZjzY7m8MO9_Ee9xfx6" version="23.0.2" type="device">
  <diagram name="Page-1" id="e7e014a7-5840-1c2e-5031-d8a46d1fe8dd">
    <mxGraphModel dx="2505" dy="1338" grid="1" gridSize="10" guides="1" tooltips="1" connect="1" arrows="1" fold="1" page="1" pageScale="1.2" pageWidth="827" pageHeight="1169" background="none" math="0" shadow="0">
      <root>
        <mxCell id="0" />
        <mxCell id="1" parent="0" />
        <mxCell id="fJgQIz3mSKjSEE4LGgQP-85" value="Diagramme des activité pour la borne de rechargement" style="swimlane;whiteSpace=wrap;html=1;fillColor=#f5f5f5;strokeColor=#666666;fontColor=#333333;" vertex="1" parent="1">
          <mxGeometry x="20" y="70" width="920" height="1290" as="geometry" />
        </mxCell>
        <mxCell id="2" value="Utilisateur   " style="swimlane;whiteSpace=wrap;fillColor=#f8cecc;strokeColor=#b85450;" parent="fJgQIz3mSKjSEE4LGgQP-85" vertex="1">
          <mxGeometry x="30" y="111" width="280" height="1160" as="geometry" />
        </mxCell>
        <mxCell id="5" value="" style="ellipse;shape=startState;fillColor=#000000;strokeColor=#ff0000;" parent="2" vertex="1">
          <mxGeometry x="100" y="40" width="30" height="30" as="geometry" />
        </mxCell>
        <mxCell id="6" value="" style="edgeStyle=elbowEdgeStyle;elbow=horizontal;verticalAlign=bottom;endArrow=open;endSize=8;strokeColor=#FF0000;endFill=1;rounded=0" parent="2" source="5" target="7" edge="1">
          <mxGeometry x="100" y="40" as="geometry">
            <mxPoint x="115" y="110" as="targetPoint" />
          </mxGeometry>
        </mxCell>
        <mxCell id="7" value="pose sa carte&#xa; sur le lecteur RFID" style="" parent="2" vertex="1">
          <mxGeometry x="68" y="90" width="110" height="50" as="geometry" />
        </mxCell>
        <mxCell id="fJgQIz3mSKjSEE4LGgQP-52" value="présente le Qr code &#xa;Lydia de X € à la caméra" style="" vertex="1" parent="2">
          <mxGeometry x="57.75" y="360" width="164.5" height="48" as="geometry" />
        </mxCell>
        <mxCell id="fJgQIz3mSKjSEE4LGgQP-80" style="edgeStyle=orthogonalEdgeStyle;rounded=0;orthogonalLoop=1;jettySize=auto;html=1;entryX=0.5;entryY=0;entryDx=0;entryDy=0;" edge="1" parent="2" source="fJgQIz3mSKjSEE4LGgQP-77" target="fJgQIz3mSKjSEE4LGgQP-79">
          <mxGeometry relative="1" as="geometry" />
        </mxCell>
        <mxCell id="fJgQIz3mSKjSEE4LGgQP-77" value="Retire la carte du lecteur RFID" style="" vertex="1" parent="2">
          <mxGeometry x="80.75" y="908" width="164.5" height="48" as="geometry" />
        </mxCell>
        <mxCell id="fJgQIz3mSKjSEE4LGgQP-79" value="" style="ellipse;shape=startState;fillColor=#000000;strokeColor=#ff0000;" vertex="1" parent="2">
          <mxGeometry x="148" y="992" width="30" height="30" as="geometry" />
        </mxCell>
        <mxCell id="3" value="Micro-Ordinateur" style="swimlane;whiteSpace=wrap;fillColor=#fff2cc;strokeColor=#d6b656;" parent="fJgQIz3mSKjSEE4LGgQP-85" vertex="1">
          <mxGeometry x="310" y="111" width="280" height="1160" as="geometry" />
        </mxCell>
        <mxCell id="fJgQIz3mSKjSEE4LGgQP-49" style="edgeStyle=orthogonalEdgeStyle;rounded=0;orthogonalLoop=1;jettySize=auto;html=1;" edge="1" parent="3" source="fJgQIz3mSKjSEE4LGgQP-42" target="fJgQIz3mSKjSEE4LGgQP-47">
          <mxGeometry relative="1" as="geometry" />
        </mxCell>
        <mxCell id="fJgQIz3mSKjSEE4LGgQP-42" value="Lecture de la carte et &#xa;récupération de son UID et &#xa;du montant d&#39;argent disponible" style="" vertex="1" parent="3">
          <mxGeometry x="55.5" y="130" width="184.5" height="80" as="geometry" />
        </mxCell>
        <mxCell id="fJgQIz3mSKjSEE4LGgQP-51" style="edgeStyle=orthogonalEdgeStyle;rounded=0;orthogonalLoop=1;jettySize=auto;html=1;" edge="1" parent="3" source="fJgQIz3mSKjSEE4LGgQP-47" target="fJgQIz3mSKjSEE4LGgQP-50">
          <mxGeometry relative="1" as="geometry" />
        </mxCell>
        <mxCell id="fJgQIz3mSKjSEE4LGgQP-47" value="Affichage de l&#39;argent&#xa; restant sur la carte" style="" vertex="1" parent="3">
          <mxGeometry x="65.5" y="242" width="164.5" height="48" as="geometry" />
        </mxCell>
        <mxCell id="fJgQIz3mSKjSEE4LGgQP-50" value="Affichage des instructions&#xa;de rechargement par Lydia" style="" vertex="1" parent="3">
          <mxGeometry x="65.5" y="312" width="164.5" height="48" as="geometry" />
        </mxCell>
        <mxCell id="fJgQIz3mSKjSEE4LGgQP-56" style="edgeStyle=orthogonalEdgeStyle;rounded=0;orthogonalLoop=1;jettySize=auto;html=1;" edge="1" parent="3" source="fJgQIz3mSKjSEE4LGgQP-54" target="fJgQIz3mSKjSEE4LGgQP-55">
          <mxGeometry relative="1" as="geometry" />
        </mxCell>
        <mxCell id="fJgQIz3mSKjSEE4LGgQP-54" value="Lecture du QR code &#xa;récupération du montant échangé" style="" vertex="1" parent="3">
          <mxGeometry x="42.75" y="412" width="210" height="40" as="geometry" />
        </mxCell>
        <mxCell id="fJgQIz3mSKjSEE4LGgQP-55" value="Envoie les informations &#xa;de paiement à&#xa;pour valider la transaction" style="" vertex="1" parent="3">
          <mxGeometry x="65.5" y="472" width="164.5" height="48" as="geometry" />
        </mxCell>
        <mxCell id="fJgQIz3mSKjSEE4LGgQP-72" style="edgeStyle=orthogonalEdgeStyle;rounded=0;orthogonalLoop=1;jettySize=auto;html=1;" edge="1" parent="3" source="fJgQIz3mSKjSEE4LGgQP-67" target="fJgQIz3mSKjSEE4LGgQP-71">
          <mxGeometry relative="1" as="geometry" />
        </mxCell>
        <mxCell id="fJgQIz3mSKjSEE4LGgQP-67" value="Inscrit la transaction &#xa;dans la base de données" style="" vertex="1" parent="3">
          <mxGeometry x="42.75" y="610" width="164.5" height="48" as="geometry" />
        </mxCell>
        <mxCell id="fJgQIz3mSKjSEE4LGgQP-74" style="edgeStyle=orthogonalEdgeStyle;rounded=0;orthogonalLoop=1;jettySize=auto;html=1;entryX=0.5;entryY=0;entryDx=0;entryDy=0;" edge="1" parent="3" source="fJgQIz3mSKjSEE4LGgQP-71" target="fJgQIz3mSKjSEE4LGgQP-73">
          <mxGeometry relative="1" as="geometry" />
        </mxCell>
        <mxCell id="fJgQIz3mSKjSEE4LGgQP-71" value="Change le montant disponible&#xa; pour la carte dans&#xa; la base de données" style="" vertex="1" parent="3">
          <mxGeometry x="42.75" y="680" width="164.5" height="58" as="geometry" />
        </mxCell>
        <mxCell id="fJgQIz3mSKjSEE4LGgQP-73" value="Affiche le montant final&#xa; disponible sur la carte" style="" vertex="1" parent="3">
          <mxGeometry x="42.75" y="770" width="164.5" height="48" as="geometry" />
        </mxCell>
        <mxCell id="fJgQIz3mSKjSEE4LGgQP-75" value="Affiche &quot;retirer votre carte&quot;" style="" vertex="1" parent="3">
          <mxGeometry x="42.75" y="860" width="164.5" height="48" as="geometry" />
        </mxCell>
        <mxCell id="fJgQIz3mSKjSEE4LGgQP-76" style="edgeStyle=orthogonalEdgeStyle;rounded=0;orthogonalLoop=1;jettySize=auto;html=1;" edge="1" parent="3" source="fJgQIz3mSKjSEE4LGgQP-73" target="fJgQIz3mSKjSEE4LGgQP-75">
          <mxGeometry relative="1" as="geometry" />
        </mxCell>
        <mxCell id="fJgQIz3mSKjSEE4LGgQP-82" value="Attente de la prochaine carte" style="" vertex="1" parent="3">
          <mxGeometry x="42.75" y="990" width="164.5" height="48" as="geometry" />
        </mxCell>
        <mxCell id="4" value="Serveur Lydia (via connexion internet)" style="swimlane;whiteSpace=wrap;startSize=23;fillColor=#dae8fc;strokeColor=#6c8ebf;" parent="fJgQIz3mSKjSEE4LGgQP-85" vertex="1">
          <mxGeometry x="590" y="111" width="280" height="1160" as="geometry" />
        </mxCell>
        <mxCell id="fJgQIz3mSKjSEE4LGgQP-66" style="edgeStyle=orthogonalEdgeStyle;rounded=0;orthogonalLoop=1;jettySize=auto;html=1;" edge="1" parent="4" source="fJgQIz3mSKjSEE4LGgQP-57" target="fJgQIz3mSKjSEE4LGgQP-65">
          <mxGeometry relative="1" as="geometry" />
        </mxCell>
        <mxCell id="fJgQIz3mSKjSEE4LGgQP-57" value="Valide la&#xa; transaction" style="" vertex="1" parent="4">
          <mxGeometry x="90" y="471" width="110" height="50" as="geometry" />
        </mxCell>
        <mxCell id="fJgQIz3mSKjSEE4LGgQP-65" value="Envoit l&#39;information&#xa; de validation au &#xa;micro-ordinateur" style="" vertex="1" parent="4">
          <mxGeometry x="90" y="552" width="110" height="58" as="geometry" />
        </mxCell>
        <mxCell id="fJgQIz3mSKjSEE4LGgQP-53" style="edgeStyle=orthogonalEdgeStyle;rounded=0;orthogonalLoop=1;jettySize=auto;html=1;entryX=0.5;entryY=0;entryDx=0;entryDy=0;" edge="1" parent="fJgQIz3mSKjSEE4LGgQP-85" source="fJgQIz3mSKjSEE4LGgQP-50" target="fJgQIz3mSKjSEE4LGgQP-52">
          <mxGeometry relative="1" as="geometry" />
        </mxCell>
        <mxCell id="fJgQIz3mSKjSEE4LGgQP-58" style="edgeStyle=orthogonalEdgeStyle;rounded=0;orthogonalLoop=1;jettySize=auto;html=1;" edge="1" parent="fJgQIz3mSKjSEE4LGgQP-85" source="fJgQIz3mSKjSEE4LGgQP-55" target="fJgQIz3mSKjSEE4LGgQP-57">
          <mxGeometry relative="1" as="geometry" />
        </mxCell>
        <mxCell id="fJgQIz3mSKjSEE4LGgQP-59" style="edgeStyle=orthogonalEdgeStyle;rounded=0;orthogonalLoop=1;jettySize=auto;html=1;entryX=0;entryY=0.5;entryDx=0;entryDy=0;" edge="1" parent="fJgQIz3mSKjSEE4LGgQP-85" source="fJgQIz3mSKjSEE4LGgQP-52" target="fJgQIz3mSKjSEE4LGgQP-54">
          <mxGeometry relative="1" as="geometry">
            <Array as="points">
              <mxPoint x="140" y="543" />
            </Array>
          </mxGeometry>
        </mxCell>
        <mxCell id="fJgQIz3mSKjSEE4LGgQP-68" style="edgeStyle=orthogonalEdgeStyle;rounded=0;orthogonalLoop=1;jettySize=auto;html=1;entryX=0.5;entryY=0;entryDx=0;entryDy=0;" edge="1" parent="fJgQIz3mSKjSEE4LGgQP-85" source="fJgQIz3mSKjSEE4LGgQP-65" target="fJgQIz3mSKjSEE4LGgQP-67">
          <mxGeometry relative="1" as="geometry" />
        </mxCell>
        <mxCell id="fJgQIz3mSKjSEE4LGgQP-78" style="edgeStyle=orthogonalEdgeStyle;rounded=0;orthogonalLoop=1;jettySize=auto;html=1;entryX=0.5;entryY=0;entryDx=0;entryDy=0;" edge="1" parent="fJgQIz3mSKjSEE4LGgQP-85" source="fJgQIz3mSKjSEE4LGgQP-75" target="fJgQIz3mSKjSEE4LGgQP-77">
          <mxGeometry relative="1" as="geometry" />
        </mxCell>
        <mxCell id="fJgQIz3mSKjSEE4LGgQP-81" style="edgeStyle=orthogonalEdgeStyle;rounded=0;orthogonalLoop=1;jettySize=auto;html=1;entryX=0.5;entryY=0;entryDx=0;entryDy=0;" edge="1" parent="fJgQIz3mSKjSEE4LGgQP-85" source="7" target="fJgQIz3mSKjSEE4LGgQP-42">
          <mxGeometry relative="1" as="geometry">
            <Array as="points">
              <mxPoint x="458" y="226" />
            </Array>
          </mxGeometry>
        </mxCell>
        <mxCell id="fJgQIz3mSKjSEE4LGgQP-83" style="edgeStyle=orthogonalEdgeStyle;rounded=0;orthogonalLoop=1;jettySize=auto;html=1;entryX=0.5;entryY=0;entryDx=0;entryDy=0;" edge="1" parent="fJgQIz3mSKjSEE4LGgQP-85" source="fJgQIz3mSKjSEE4LGgQP-77" target="fJgQIz3mSKjSEE4LGgQP-82">
          <mxGeometry relative="1" as="geometry" />
        </mxCell>
      </root>
    </mxGraphModel>
  </diagram>
</mxfile>
